<svg xmlns="http://www.w3.org/2000/svg" viewBox="0 0 520 130"><path style="fill:#2074ba;fill-opacity:1;stroke:none" d="M81 117h356.5c18.227 0 29.147 3 39.5 3 22.132 0 33-9.769 33-28 0-8.466-1.823-14.524-3.5-17.5 1.812 12.933-6.256 25.5-22.5 25.5-5.468 0-11.5-3.345-11.5-8 0-9.591 25-6.698 25-20 0-8.681-18.5-20.084-18.5-26 0-7.811 16.5-5.355 16.5-19 0-5.189-6.982-15-16.5-15-2.418 0-4.466.302-6 1 3.917 0 10 5.844 10 9 0 7.518-22.5 9.47-22.5 21.5 0 7.251 9.5 14.31 9.5 21.5 0 7.306-4.14 12-8 12-2.816 0-10.5-4.355-10.5-9 0-3.868 2-7.207 2-12 0-6.917-6.76-15.5-17-15.5-2.215 0-3.658.364-5.5 1 3.46 2.88 8.5 5.428 8.5 12.5 0 10.416-3.743 16.368-13 20.5h-9l20-54.5H415c-2.544.682-5.876 3.32-8 7l2-7h-21c-5.256 1.408-7.832 2.218-11.5 12l-1.5 4c2.5-9.327-3.387-16-9-16h-32.5c-5.415 0-11.688 5.329-13.5 10.04L302.9 74.5 307 35c5.734-1.537 7.57-7.797 9.5-15H285c-6.031 1.616-8.083 4.47-11.5 10L246 74.5h-21.5l4.55-12.5h15.45c5.503-1.474 8.04-7.822 10.5-17h-19.8l3.3-9H257c4.753-1.273 8.237-7.556 10.5-16h-42c-5.668 1.519-7.996 4.264-11 12L198 74.5h-18L200.5 20H179c-4.693 1.258-6.847 2.644-10 10l-3 7c1.968-7.347-2.239-15.188-9-17H97c-6.129 1.642-10 10.427-10 17h22.5L95 75c-6.896-2.683-14.5-9.486-14.5-21 0-5.92 7.326-11.745 9.5-13-.849-.849-3.71-1-6-1-10.318 0-17.5 8.51-17.5 17 0 2.912 2 7.827 2 11 0 4.72-5.305 8.5-10.5 8.5-5.47 0-8-6.82-8-11.5 0-8.105 9.5-11.651 9.5-21.5 0-11.868-22-14.111-22-21.5 0-3.733 5.505-9 9.5-9-1.422-1.298-4.212-1-6.5-1-8.964 0-16 9.222-16 16 0 11.27 17 10.685 17 18 0 8.827-18.5 15.712-18.5 26 0 13.84 25 12.027 25 20 0 3.901-6.602 8-12 8-16.705 0-24.792-14.58-22-25-1.399.808-4 9.366-4 17 0 15.177 10.658 28 32.5 28 10.646 0 27.943-3 38.5-3z"/><path style="fill:#ee1d23;fill-opacity:1;stroke:none" d="M93 94c-2.99.801-7 5.036-7 8h107c2.925-.784 7-5.022 7-8H93zm235 0c-2.99.801-7 5.036-7 8h107c2.925-.784 7-5.022 7-8H328zM93 106c-2.99.801-7 5.036-7 8h107c2.925-.784 7-5.022 7-8H93zm235 0c-2.99.801-7 5.036-7 8h107c2.925-.784 7-5.022 7-8H328z"/><path style="fill:#fff;fill-opacity:1;stroke:none" d="M37 16c-3.502 0-9 5.887-9 11 0 12.786 16.5 7.416 16.5 19.5C44.5 54.54 26 63.667 26 72c0 11.68 24.5 7.441 24.5 20 0 4.191-4.154 10.5-14.5 10.5-14.654 0-21.011-9.055-23-12.5 0 16.867 7.62 27 33 27 14.063 0 23.289-.46 36.5-4 .44-1.644 1.376-3.876 3.5-6v-2h-4c0-6.508 4.29-11.738 9-13v-2H80c0-3.968 4.07-13.045 9.5-14.5C83.282 71.91 78 64.368 78 54c0-3.98 1.336-7.836 3.5-10-6.535 0-12 6.804-12 12.5 0 3.213 2.002 7.696 2 11.5-.004 6.497-8.775 11.5-13.5 11.5-7.748 0-10.5-9.694-10.5-14.5 0-10.084 9-13.891 9-21 0-11.386-22-11.094-22-22 0-2.563 1.486-4.986 2.5-6zm446 0c1.014 1.014 2.5 3.437 2.5 6 0 10.906-22 10.614-22 22 0 7.109 9 10.916 9 21 0 4.806-2.752 14.5-10.5 14.5-4.725 0-13.496-5.003-13.5-11.5-.002-3.804 2-8.287 2-11.5 0-5.696-5.465-12.5-12-12.5 2.164 2.164 3.5 6.02 3.5 10 0 10.368-4.839 18.098-9 20.5h6c0 5.447-3.854 14.621-9 16h11c0 5.01-4.53 11.338-7 12h7c0 3.562-3.598 9.856-6 10.5 17.784 0 30.785 4 42 4 23.071 0 30-9.593 30-27-1.989 3.445-8.346 12.5-23 12.5-10.346 0-14.5-6.309-14.5-10.5 0-12.559 24.5-8.32 24.5-20 0-8.333-18.5-17.46-18.5-25.5 0-12.084 16.5-6.714 16.5-19.5 0-5.113-5.498-11-9-11zM205.5 92.5l-1.406 4h14.5l-5.594 16h9.5l7-20h-24zm26 0-2.969 8.5h4.5L236 92.5h-4.5zm6 0-2.969 8.5h4.5L242 92.5h-4.5zm8 0-4.188 12h9.5l4.188-12h-9.5zm12.5 0-7 20h9.5l7-20H258zm59.5 1L297 95l-1.063 3 5.282-.375-1.375 3.875H293.5l-1.063 3h6.375l-2.812 8h9.5l2.813-8h7.625l1.062-3h-7.656l1.625-4.594 5.469-.406 1.062-3zm-48 8-1.063 3h18l1.063-3h-18z"/><path style="fill:#ee1d23;fill-opacity:1;stroke:#fff;stroke-width:2;stroke-linecap:butt;stroke-linejoin:miter;stroke-miterlimit:4.19999981;stroke-opacity:1;stroke-dasharray:none" d="M332.5 25c-3.017.808-7.293 3.885-8.5 7l-15.5 40c-1.063 2.744-.831 4.832-.25 7H298l5-47h3c1.292-.346 3.35-4.576 4-7h-24.5c-2.73.731-4.973 1.757-7 5l-35 56h8.5c2.548-.683 4.36-3.63 6.5-7l10.16-16h14.64L282 79c-.3 3.698 1.75 6.397 4 7h56.5c2.46-.659 9.622-3.51 12.5-11l7.3-19h-17.1L338 74.5c-.915 2.351-2.306 4.046-4 4.5h-9c-1.22-.327-1.266-2.533-.5-4.5l15-38.5c.994-2.552 2.138-3.635 3.5-4h10c.91.526.775 2.009 0 4l-5.45 14h17.05l6.9-18c.712-1.857-2.092-6.355-4.5-7h-34.5zm-107 0c-2.144.575-5.104 3.322-6.5 7l-20.5 54h37c2.63-.705 4.573-3.539 5.5-7h-22.5l7.95-22H244c2.233-.598 4.312-4.433 5-7h-20l6.5-18H255c1.778-.476 4.645-3.807 5.5-7h-35zM181 25c-2.769.742-4.519 3.19-6 7l-21 54h36c2.776-.744 5.08-3.568 6-7h-22.5l20-54H181zm-83 0c-2.915.781-5 4.744-5 7h23L98.5 79h-7c-2.869.769-5 4.834-5 7h48.438c11.089-2.971 16.562-15.056 16.562-25 0-3.1-.056-5.657-3.031-7.375C153.989 52.145 160.5 42.591 160.5 32c0-1.91-2.283-6.406-4.5-7H98zm319 0c-2.186.586-4.25 3.715-5.5 7l-6.85 18H392.5l9.5-25h-14c-2.162.58-4.065 3.124-5.5 7l-20 54H375c2.813-.754 4.998-3.032 6.5-7l7.95-21h12.2L391 86h38c1.944-.52 3.759-4.234 4.5-7H411l20-54h-14zm-284 7h11c1.506.87 1.355 2.571 1 3.5L140.6 47c-.391 1.022-1.205 2.492-3.1 3h-11.365L133 32zm152.5 4.5L284 55h-10.25l11.75-18.5zM123.475 57H134.5c1.13.653 1.568 1.889.95 3.5L129.5 76c-.358.933-1.78 2.673-3 3h-11.4l8.375-22z"/></svg>